<svg id="visual" viewBox="0 0 900 600" width="900" height="600" xmlns="http://www.w3.org/2000/svg" xmlns:xlink="http://www.w3.org/1999/xlink" version="1.1"><path d="M0 495L30 500.8C60 506.7 120 518.3 180 512.3C240 506.3 300 482.7 360 481.2C420 479.7 480 500.3 540 505.5C600 510.7 660 500.3 720 497.8C780 495.3 840 500.7 870 503.3L900 506L900 601L870 601C840 601 780 601 720 601C660 601 600 601 540 601C480 601 420 601 360 601C300 601 240 601 180 601C120 601 60 601 30 601L0 601Z" fill="#590c19"></path><path d="M0 553L30 549.7C60 546.3 120 539.7 180 530C240 520.3 300 507.7 360 504.3C420 501 480 507 540 514.2C600 521.3 660 529.7 720 528.2C780 526.7 840 515.3 870 509.7L900 504L900 601L870 601C840 601 780 601 720 601C660 601 600 601 540 601C480 601 420 601 360 601C300 601 240 601 180 601C120 601 60 601 30 601L0 601Z" fill="#8c1529"></path><path d="M0 547L30 546.3C60 545.7 120 544.3 180 547.2C240 550 300 557 360 558.3C420 559.7 480 555.3 540 554.2C600 553 660 555 720 554.8C780 554.7 840 552.3 870 551.2L900 550L900 601L870 601C840 601 780 601 720 601C660 601 600 601 540 601C480 601 420 601 360 601C300 601 240 601 180 601C120 601 60 601 30 601L0 601Z" fill="#c21e3a"></path></svg>